<?xml version="1.0" standalone="no"?>
<!DOCTYPE svg PUBLIC "-//W3C//DTD SVG 20010904//EN"
 "http://www.w3.org/TR/2001/REC-SVG-20010904/DTD/svg10.dtd">
<svg version="1.0" xmlns="http://www.w3.org/2000/svg"
 width="500.000000pt" height="500.000000pt" viewBox="0 0 500.000000 500.000000"
 preserveAspectRatio="xMidYMid meet">

<g transform="translate(0.000000,500.000000) scale(0.100000,-0.100000)"
fill="#000000" stroke="none">
<path d="M2335 4705 l-180 -175 -230 0 -230 0 -165 -165 -165 -165 -252 0
-253 0 0 -253 0 -252 -165 -165 -165 -165 0 -234 0 -234 -182 -178 -183 -178
183 -183 182 -183 0 -230 0 -230 165 -165 165 -165 0 -252 0 -253 253 0 252 0
165 -165 165 -165 230 0 230 0 180 -180 180 -180 185 180 185 180 230 0 230 0
165 165 165 165 252 0 253 0 0 253 0 252 165 165 165 165 0 235 0 235 177 177
178 178 -178 178 -177 177 0 235 0 235 -165 165 -165 165 0 252 0 253 -253 0
-252 0 -165 165 -165 165 -235 0 -235 0 -175 175 c-96 96 -177 175 -180 175
-3 -1 -86 -79 -185 -175z m265 -100 l74 -75 -154 0 -154 0 74 75 c41 41 77 75
80 75 3 0 39 -34 80 -75z m-593 -222 c-4 -5 -46 -47 -95 -95 l-87 -88 -122 0
c-68 0 -123 3 -123 7 0 4 39 47 87 95 l88 88 129 0 c71 0 126 -3 123 -7z m903
-88 l95 -95 -485 0 -485 0 95 95 95 95 295 0 295 0 95 -95z m460 3 l95 -93
-129 -3 -130 -3 -88 88 c-48 48 -88 91 -88 95 0 5 55 8 123 8 l123 0 94 -92z
m-2160 -246 c0 -4 -47 -54 -105 -112 l-105 -105 0 113 0 112 105 0 c58 0 105
-3 105 -8z m309 -159 c-91 -93 -241 -246 -334 -340 -92 -95 -172 -173 -177
-173 -4 0 -8 57 -8 127 l0 128 212 212 213 213 129 0 130 0 -165 -167z m2307
-50 l213 -218 1 -122 c0 -68 -3 -123 -7 -123 -10 0 -673 663 -673 672 0 5 57
8 126 8 l127 0 213 -217z m214 107 c0 -60 -1 -110 -3 -110 -1 0 -52 50 -112
110 l-110 110 113 0 112 0 0 -110z m-451 -337 l441 -438 0 -635 0 -635 -442
-442 -443 -443 -625 0 -625 0 -447 447 -448 448 0 625 0 625 442 442 443 443
632 0 632 0 440 -437z m-2729 -260 l0 -128 -87 -87 c-48 -49 -91 -88 -95 -88
-5 0 -8 57 -8 127 l0 128 87 87 c48 49 91 88 95 88 5 0 8 -57 8 -127z m3510
-180 c0 -68 -3 -123 -8 -123 -4 0 -47 39 -95 88 l-87 87 0 130 0 130 95 -95
95 -95 0 -122z m-3510 -635 l0 -483 -95 95 -95 95 0 295 0 295 92 92 c51 51
94 93 95 93 2 0 3 -217 3 -482z m3510 2 l0 -295 -95 -95 -95 -95 0 485 0 485
95 -95 95 -95 0 -295z m-3840 -2 l0 -153 -77 77 -78 78 75 75 c41 41 76 75 77
75 2 0 3 -69 3 -152z m4057 -75 l-77 -78 0 155 0 155 77 -78 78 -77 -78 -77z
m-3727 -740 c0 -68 -3 -123 -8 -123 -4 0 -47 39 -95 88 l-87 87 0 130 0 130
95 -95 95 -95 0 -122z m3423 -35 c-48 -48 -91 -88 -95 -88 -5 0 -8 58 -8 129
l0 129 93 87 92 87 3 -128 3 -128 -88 -88z m-2730 -666 l-127 -3 -213 213
-213 213 0 130 0 130 340 -340 340 -340 -127 -3z m2487 550 l0 -128 -213 -212
-213 -212 -127 0 c-70 0 -127 3 -127 7 0 10 663 673 672 673 5 0 8 -58 8 -128z
m-2928 -439 c54 -54 98 -101 98 -105 0 -5 -47 -8 -105 -8 l-105 0 0 105 c0 58
3 105 7 105 4 0 52 -44 105 -97z m2928 -8 l0 -105 -112 0 -113 0 105 105 c58
58 108 105 112 105 5 0 8 -47 8 -105z m-2120 -340 l95 -95 -130 0 -130 0 -87
87 c-49 48 -88 91 -88 95 0 5 55 8 123 8 l122 0 95 -95z m990 0 l-95 -95 -300
1 -300 1 -89 94 -89 94 484 0 484 0 -95 -95z m550 87 c0 -4 -40 -47 -88 -95
l-88 -88 -126 3 -126 3 85 93 85 92 129 0 c71 0 129 -3 129 -8z m-863 -399
l-77 -78 -77 78 -78 77 155 0 155 0 -78 -77z"/>
<path d="M2494 3744 c84 -207 88 -443 9 -557 -29 -41 -78 -71 -134 -82 -30 -5
-39 -2 -63 22 -16 15 -43 57 -60 93 -29 61 -31 72 -31 177 0 88 -3 109 -13
101 -31 -26 -104 -161 -133 -248 -28 -84 -33 -112 -38 -245 -7 -164 -17 -196
-67 -215 -102 -39 -181 40 -148 148 44 145 -26 272 -170 306 l-28 7 21 -34
c11 -18 25 -57 31 -85 15 -66 -4 -142 -62 -253 -38 -73 -42 -89 -46 -168 -3
-67 1 -107 17 -171 11 -46 23 -85 25 -87 3 -3 33 24 68 60 76 78 209 166 330
219 421 186 957 124 1300 -151 l85 -68 12 51 c20 83 25 226 11 286 -7 29 -36
103 -65 164 -58 122 -85 202 -85 253 0 42 -11 42 -43 -1 -29 -38 -48 -83 -72
-173 -12 -43 -27 -71 -50 -93 -30 -29 -40 -33 -89 -32 -31 0 -73 9 -99 20 -76
34 -104 94 -131 278 -22 150 -40 215 -83 296 -36 69 -108 144 -173 182 -33 19
-33 19 -26 0z"/>
<path d="M2320 2765 c-290 -49 -545 -193 -690 -390 -49 -67 -99 -173 -106
-228 -11 -78 37 -142 120 -163 l29 -7 -36 -19 c-70 -35 -90 -129 -40 -188 14
-18 36 -36 47 -40 21 -8 21 -8 1 -15 -64 -22 -79 -31 -96 -59 -41 -68 -6 -197
77 -279 78 -78 7 -72 894 -72 741 0 797 1 827 18 113 61 194 239 149 325 -17
33 -61 62 -94 62 -32 0 -32 12 1 34 17 12 37 33 44 46 31 61 3 145 -57 170
l-32 13 51 24 c112 54 133 137 69 273 -122 260 -397 440 -758 495 -114 18
-297 18 -400 0z m420 -70 c173 -29 364 -108 386 -160 25 -62 21 -135 -11 -173
-64 -76 -120 -84 -610 -83 -621 1 -750 8 -800 45 -19 13 -18 15 19 61 70 85
209 183 331 234 214 89 447 115 685 76z m-196 -483 c454 -2 818 1 842 6 42 9
43 9 53 -21 6 -16 11 -40 11 -53 0 -35 -44 -80 -92 -93 -32 -9 -259 -11 -875
-9 -831 3 -832 3 -860 24 -23 18 -28 29 -28 65 1 25 11 65 23 90 l22 46 53
-26 52 -26 799 -3z m124 -298 c-4 -3 -84 -37 -180 -75 -95 -38 -265 -114 -377
-169 -112 -55 -207 -100 -211 -100 -9 0 -95 256 -105 313 l-7 37 443 0 c243 0
440 -3 437 -6z m-849 -328 c28 -63 52 -86 87 -86 10 0 84 34 165 75 l147 75
584 0 c454 0 589 -3 608 -13 22 -11 25 -20 25 -63 -1 -63 -40 -133 -97 -174
l-41 -30 -778 0 -777 0 -43 33 c-51 39 -99 121 -101 172 -2 58 26 75 118 75
l74 0 29 -64z"/>
<path d="M2269 2610 c-46 -24 -61 -44 -61 -77 0 -48 63 -71 94 -35 9 9 21 34
26 55 18 66 -2 86 -59 57z"/>
<path d="M2733 2604 c-3 -9 1 -37 9 -62 10 -36 21 -49 42 -57 45 -15 84 21 72
68 -12 48 -109 88 -123 51z"/>
<path d="M2495 2568 c-27 -66 -19 -114 20 -124 61 -15 90 43 57 112 -27 55
-57 59 -77 12z"/>
</g>
</svg>
