<?xml version="1.0" standalone="no"?>
<!DOCTYPE svg PUBLIC "-//W3C//DTD SVG 20010904//EN"
 "http://www.w3.org/TR/2001/REC-SVG-20010904/DTD/svg10.dtd">
<svg version="1.0" xmlns="http://www.w3.org/2000/svg"
 width="231.000000pt" height="375.000000pt" viewBox="0 0 231.000000 375.000000"
 preserveAspectRatio="xMidYMid meet">

<g transform="translate(0.000000,375.000000) scale(0.100000,-0.100000)"
fill="#000000" stroke="none">
<path d="M510 3732 c-149 -39 -286 -162 -335 -302 -83 -236 23 -498 246 -605
41 -19 79 -35 86 -35 10 0 13 -34 13 -143 l0 -144 -52 -12 c-167 -38 -331
-177 -409 -347 -159 -347 36 -761 406 -864 l60 -17 0 -148 0 -148 -40 -12
c-134 -40 -263 -163 -310 -295 -137 -388 236 -762 623 -626 69 25 126 63 186
126 115 121 161 289 121 445 -42 164 -150 285 -305 342 l-55 21 -3 148 -2 149
52 12 c82 19 192 80 262 144 35 33 67 59 71 59 7 0 195 -130 218 -150 4 -4 3
-38 -4 -77 -46 -282 189 -553 481 -553 230 0 422 156 476 387 38 162 -21 344
-149 459 -188 169 -482 165 -663 -8 l-31 -29 -112 78 c-125 87 -116 69 -92
183 15 69 13 187 -5 259 l-17 65 28 22 c15 12 67 49 115 82 l87 61 29 -30 c41
-43 112 -86 178 -109 181 -62 371 -15 506 126 272 283 114 750 -277 815 -312
51 -606 -239 -555 -549 13 -79 21 -69 -118 -164 l-95 -66 -69 64 c-74 69 -174
125 -266 148 l-55 13 0 138 0 137 61 22 c83 30 121 56 188 125 115 121 161
290 121 445 -38 147 -129 260 -256 321 -121 57 -221 68 -339 37z m188 -244
c64 -16 143 -94 161 -161 37 -131 -48 -269 -181 -296 -164 -33 -307 111 -277
277 15 80 74 149 155 177 49 18 82 18 142 3z m1231 -698 c81 -41 125 -116 125
-210 0 -213 -249 -316 -399 -165 -84 83 -94 208 -25 303 31 43 85 81 134 93
44 11 122 1 165 -21z m-1152 -611 c266 -127 234 -526 -49 -610 -52 -16 -151
-13 -208 6 -69 23 -160 107 -191 177 -34 77 -33 193 2 268 81 172 274 241 446
159z m1152 -785 c63 -32 104 -84 121 -154 35 -145 -80 -290 -230 -290 -84 0
-171 54 -209 129 -105 204 111 418 318 315z m-1225 -676 c59 -18 138 -99 155
-161 37 -131 -48 -269 -181 -296 -164 -33 -307 111 -277 277 26 136 166 220
303 180z"/>
</g>
</svg>
