<?xml version="1.0" standalone="no"?>
<!DOCTYPE svg PUBLIC "-//W3C//DTD SVG 20010904//EN"
 "http://www.w3.org/TR/2001/REC-SVG-20010904/DTD/svg10.dtd">
<svg version="1.0" xmlns="http://www.w3.org/2000/svg"
 width="371.000000pt" height="247.000000pt" viewBox="0 0 371.000000 247.000000"
 preserveAspectRatio="xMidYMid meet">

<g transform="translate(0.000000,247.000000) scale(0.100000,-0.100000)"
fill="#000000" stroke="none">
<path d="M3470 1585 l0 -75 -30 0 c-29 0 -30 -2 -30 -45 0 -44 1 -45 31 -45
l32 0 -8 -180 -7 -180 49 0 49 0 -4 180 -4 180 36 0 36 0 0 45 c0 43 -1 45
-30 45 l-30 0 0 75 0 75 -45 0 -45 0 0 -75z"/>
<path d="M326 1478 c3 -90 1 -176 -4 -193 -8 -27 -11 -19 -40 85 -17 63 -39
148 -49 188 l-17 72 -63 0 -63 0 0 -275 0 -275 46 0 46 0 -2 93 c-4 141 -1
301 5 295 8 -7 81 -265 95 -333 l11 -55 60 0 59 0 0 219 c0 120 3 246 6 280
l7 61 -52 0 -51 0 6 -162z"/>
<path d="M1540 1624 c-48 -21 -68 -41 -98 -99 -21 -41 -27 -68 -30 -147 -6
-129 19 -215 78 -273 37 -36 45 -39 104 -43 61 -4 66 -3 100 29 60 55 68 137
19 191 -34 38 -103 6 -103 -47 0 -18 9 -31 30 -43 35 -20 37 -32 12 -55 -24
-22 -65 -22 -85 1 -50 55 -64 312 -22 397 17 33 25 40 50 40 29 0 30 -1 27
-42 -3 -36 0 -44 23 -59 54 -36 109 26 83 94 -24 63 -111 89 -188 56z"/>
<path d="M550 1512 c-54 -29 -74 -80 -78 -193 -5 -121 9 -172 58 -221 33 -33
44 -38 84 -38 58 0 101 21 121 60 19 37 19 60 -1 88 -19 28 -65 29 -89 1 -16
-17 -17 -24 -7 -51 12 -33 9 -48 -12 -48 -21 0 -46 35 -52 71 -5 33 -3 35 52
64 69 35 114 97 114 158 0 101 -99 157 -190 109z m88 -54 c18 -18 14 -89 -8
-125 -19 -32 -57 -59 -67 -49 -10 9 14 155 27 171 15 18 32 19 48 3z"/>
<path d="M1180 1520 c-48 -12 -80 -52 -80 -100 0 -22 7 -45 16 -54 18 -19 55
-21 72 -4 15 15 16 60 1 75 -15 15 24 36 51 28 24 -7 43 -70 30 -95 -12 -22
-69 -70 -108 -92 -74 -40 -94 -146 -37 -195 34 -30 73 -29 118 1 l36 25 3 -22
c2 -12 9 -22 16 -21 6 1 25 2 41 3 l29 1 -5 178 c-4 138 -9 183 -22 206 -33
59 -92 83 -161 66z m100 -271 c0 -63 -47 -127 -83 -113 -38 14 -19 72 40 120
37 31 43 30 43 -7z"/>
<path d="M1846 1503 c-49 -45 -70 -106 -70 -208 -1 -147 40 -223 126 -232 62
-6 102 22 136 95 22 48 27 71 27 147 0 156 -43 225 -142 225 -38 0 -54 -5 -77
-27z m108 -48 c48 -48 14 -335 -39 -335 -8 0 -23 12 -32 27 -14 21 -18 47 -17
123 1 97 14 159 41 185 18 19 28 19 47 0z"/>
<path d="M2260 1519 c-14 -5 -31 -17 -37 -26 -12 -16 -13 -16 -13 0 0 14 -10
17 -48 17 l-49 0 1 -217 1 -218 41 -3 42 -3 3 148 c4 127 7 153 25 183 26 46
60 52 75 13 11 -28 6 -249 -7 -304 -5 -24 -3 -26 37 -32 27 -4 46 -2 50 5 11
17 20 130 21 238 1 112 -19 173 -63 195 -32 17 -44 18 -79 4z"/>
<path d="M2587 1511 c-20 -10 -37 -15 -37 -10 0 5 -23 9 -51 9 l-52 0 7 -77
c3 -42 6 -141 6 -220 l0 -143 39 0 39 0 3 148 c4 126 7 152 25 182 11 19 30
36 41 38 39 6 46 -28 40 -177 -4 -75 -8 -145 -9 -155 -2 -16 5 -21 36 -28 22
-5 43 -5 48 0 13 13 31 221 25 289 -7 74 -36 135 -72 151 -35 16 -44 15 -88
-7z"/>
<path d="M2873 1514 c-41 -21 -60 -50 -79 -126 -24 -91 -7 -216 36 -274 40
-53 119 -71 180 -39 31 16 60 61 60 92 0 56 -69 83 -105 42 -16 -17 -17 -24
-7 -51 12 -33 9 -48 -12 -48 -21 0 -46 35 -53 73 -5 30 -2 36 18 42 79 25 149
112 149 184 0 92 -100 148 -187 105z m85 -56 c19 -19 14 -87 -9 -124 -21 -35
-56 -60 -67 -50 -9 10 14 154 28 171 15 18 32 19 48 3z"/>
<path d="M3180 1508 c-50 -34 -73 -88 -78 -181 -7 -111 10 -178 57 -227 32
-34 44 -40 80 -40 83 0 141 54 141 132 0 51 -13 68 -50 68 -51 0 -76 -53 -45
-97 13 -18 12 -22 -6 -39 -47 -43 -78 24 -78 171 0 78 4 109 19 143 20 44 34
51 65 28 18 -13 18 -15 3 -46 -27 -57 5 -103 59 -84 61 21 49 132 -19 174 -45
27 -106 26 -148 -2z"/>
<path d="M770 1491 c0 -5 17 -40 38 -78 72 -128 71 -119 12 -228 -28 -53 -50
-98 -48 -100 2 -2 28 -5 57 -7 l54 -3 15 53 c8 28 18 52 22 52 4 0 17 -26 29
-58 l22 -59 45 7 c24 4 47 9 50 13 3 3 -20 51 -51 107 l-57 101 55 97 54 97
-46 6 c-25 3 -49 5 -52 3 -4 -2 -15 -26 -25 -54 -10 -27 -21 -50 -25 -50 -4 0
-16 24 -27 53 l-20 52 -51 3 c-28 2 -51 -1 -51 -7z"/>
<path d="M483 928 c-51 -25 -48 -129 3 -148 27 -11 79 4 69 20 -4 6 -13 5 -25
-3 -42 -26 -83 38 -58 90 11 23 20 28 46 27 34 -2 43 10 16 20 -20 8 -24 7
-51 -6z"/>
<path d="M610 927 c-52 -26 -47 -127 7 -148 80 -30 126 114 47 150 -30 13 -24
13 -54 -2z m68 -40 c15 -32 6 -74 -21 -91 -42 -27 -84 52 -53 99 22 34 56 30
74 -8z"/>
<path d="M1203 928 c-65 -32 -44 -158 27 -158 22 0 57 27 47 36 -4 4 -13 2
-19 -4 -29 -29 -68 2 -68 53 0 45 24 68 64 60 29 -6 30 -5 12 10 -23 17 -32
18 -63 3z"/>
<path d="M1726 921 c-22 -24 -9 -54 34 -76 17 -9 30 -22 30 -29 0 -20 -28 -28
-52 -15 -27 14 -38 1 -14 -17 26 -18 46 -18 74 2 33 23 25 55 -21 79 -46 25
-46 51 1 47 37 -2 43 13 10 22 -36 9 -44 7 -62 -13z"/>
<path d="M2506 924 c-29 -28 -19 -52 32 -78 17 -9 32 -23 32 -30 0 -20 -28
-28 -52 -15 -27 14 -38 1 -14 -17 37 -27 86 -9 86 31 0 18 -11 32 -41 50 -34
22 -38 29 -28 41 8 10 22 13 43 9 29 -6 30 -5 12 10 -25 19 -50 19 -70 -1z"/>
<path d="M2783 930 c-59 -24 -57 -127 3 -150 26 -10 64 2 64 20 0 6 -9 5 -20
-2 -43 -27 -87 41 -59 90 12 22 22 27 50 25 32 -1 33 0 15 13 -22 16 -23 16
-53 4z"/>
<path d="M740 856 c0 -88 18 -103 22 -20 l3 56 30 -53 c45 -78 55 -75 55 15 0
44 -4 76 -10 76 -6 0 -10 -26 -10 -57 l0 -58 -33 54 c-47 79 -57 77 -57 -13z"/>
<path d="M890 855 c0 -43 4 -75 10 -75 6 0 10 28 10 63 l1 62 35 -62 c49 -86
64 -83 64 12 0 43 -4 75 -10 75 -6 0 -10 -28 -10 -62 l0 -63 -37 63 c-50 84
-63 81 -63 -13z"/>
<path d="M1050 855 l0 -75 45 0 c25 0 45 5 45 10 0 7 -13 8 -35 4 -34 -6 -35
-5 -35 25 0 28 3 31 30 31 17 0 30 5 30 10 0 6 -13 10 -30 10 -25 0 -30 4 -30
24 0 21 5 25 38 29 34 3 33 4 -10 5 l-48 2 0 -75z"/>
<path d="M1310 921 c23 -6 25 -12 28 -74 4 -88 22 -87 22 2 0 68 1 70 28 74
15 2 -2 4 -38 5 -41 0 -56 -3 -40 -7z"/>
<path d="M1480 855 c0 -43 4 -75 10 -75 6 0 10 16 10 35 0 33 2 35 33 36 l32
1 -30 7 c-23 5 -31 12 -33 33 -3 24 0 27 35 31 36 3 35 4 -9 5 l-48 2 0 -75z"/>
<path d="M1597 855 c-14 -41 -21 -75 -15 -75 5 0 12 9 15 20 4 14 14 20 35 20
21 0 31 -6 35 -20 3 -11 11 -20 19 -20 10 0 6 19 -14 75 -15 41 -32 75 -39 75
-6 0 -23 -34 -36 -75z m52 3 c1 -12 -6 -18 -19 -18 -24 0 -23 -2 -8 40 10 30
12 32 19 14 4 -10 8 -27 8 -36z"/>
<path d="M1843 923 c26 -4 27 -6 27 -74 0 -55 3 -69 15 -69 12 0 15 14 15 69
0 64 2 70 23 74 12 2 -7 4 -43 4 -36 0 -53 -2 -37 -4z"/>
<path d="M2039 903 c-22 -57 -39 -106 -39 -114 0 -18 22 -9 27 11 4 14 14 20
33 20 20 0 31 -6 35 -20 3 -11 12 -20 19 -20 9 0 5 21 -13 75 -28 79 -45 92
-62 48z m40 -50 c1 -7 -8 -13 -19 -13 -17 0 -19 4 -14 28 10 43 18 49 25 22 4
-14 7 -31 8 -37z"/>
<path d="M2150 856 c0 -48 4 -76 11 -76 7 0 10 21 7 60 -1 33 -2 60 -1 60 1 0
16 -27 35 -60 45 -82 58 -79 58 15 0 43 -4 75 -10 75 -6 0 -10 -28 -10 -62 l0
-63 -33 59 c-47 85 -57 83 -57 -8z"/>
<path d="M2300 855 l0 -75 38 0 c48 0 76 28 76 75 0 47 -28 75 -76 75 l-38 0
0 -75z m68 49 c15 -10 22 -25 22 -47 0 -41 -9 -54 -43 -62 l-27 -7 0 59 c0 77
7 86 48 57z"/>
<path d="M2620 855 l0 -75 53 1 c51 2 51 2 12 8 -34 5 -40 10 -43 34 -3 24 0
27 27 27 17 0 31 5 31 10 0 6 -14 10 -31 10 -26 0 -30 3 -27 23 2 16 12 24 38
28 33 6 32 6 -12 8 l-48 1 0 -75z"/>
<path d="M2880 876 c0 -68 7 -85 38 -97 18 -7 31 -5 48 6 21 14 24 23 24 80 0
37 -4 65 -10 65 -6 0 -10 -26 -10 -59 0 -66 -18 -93 -48 -74 -12 7 -18 27 -20
72 -4 75 -22 81 -22 7z"/>
<path d="M3040 855 c0 -43 4 -75 10 -75 6 0 10 14 10 30 0 18 5 30 13 30 7 0
21 -13 30 -30 24 -40 42 -39 22 1 -15 28 -15 32 -1 48 34 37 12 71 -46 71
l-38 0 0 -75z m70 55 c20 -13 2 -44 -29 -48 -18 -3 -21 2 -21 27 0 33 19 41
50 21z"/>
<path d="M3170 855 l0 -75 53 1 c51 2 51 2 12 8 -34 5 -40 10 -43 34 -3 24 0
27 27 27 17 0 31 5 31 10 0 6 -14 10 -31 10 -26 0 -30 3 -27 23 2 16 12 24 38
28 33 6 32 6 -12 8 l-48 1 0 -75z"/>
</g>
</svg>
