<?xml version="1.0" standalone="no"?>
<!DOCTYPE svg PUBLIC "-//W3C//DTD SVG 20010904//EN"
 "http://www.w3.org/TR/2001/REC-SVG-20010904/DTD/svg10.dtd">
<svg version="1.0" xmlns="http://www.w3.org/2000/svg"
 width="162.000000pt" height="146.000000pt" viewBox="0 0 162.000000 146.000000"
 preserveAspectRatio="xMidYMid meet">

<g transform="translate(0.000000,146.000000) scale(0.100000,-0.100000)"
fill="#000000" stroke="none">
<path d="M293 1359 c-24 -12 -55 -35 -69 -53 -59 -69 -59 -64 -62 -528 -2
-272 1 -448 7 -485 14 -73 52 -127 116 -164 l50 -29 470 0 c524 0 514 -1 582
71 64 67 63 61 63 569 0 508 1 502 -63 569 -68 72 -58 71 -582 71 -458 0 -471
-1 -512 -21z m467 -309 c28 -15 41 -65 30 -116 -14 -63 -52 -135 -69 -132 -28
6 -30 43 -3 120 28 84 25 108 -13 108 -86 0 -175 -83 -175 -163 0 -40 17 -57
116 -115 108 -63 143 -113 131 -188 -14 -84 -102 -144 -215 -144 -76 0 -119
17 -155 59 -22 26 -27 43 -27 85 0 61 25 92 84 106 l36 8 -25 -42 c-14 -24
-25 -56 -25 -73 0 -100 152 -137 236 -57 33 30 36 38 31 70 -8 48 -25 66 -124
125 -119 72 -144 110 -123 187 15 57 66 121 119 149 47 25 136 32 171 13z
m350 -357 c23 -29 23 -43 -1 -125 -10 -37 -10 -51 -1 -60 9 -9 21 -1 54 33 24
24 48 53 54 64 7 11 15 17 19 13 11 -10 -40 -92 -76 -122 -38 -32 -88 -35
-114 -6 -16 18 -17 25 -5 79 14 68 9 91 -19 91 -29 0 -73 -42 -126 -119 -41
-60 -50 -68 -69 -61 -12 4 -20 16 -20 26 3 45 52 187 68 196 29 16 46 2 46
-39 1 -31 2 -35 11 -20 6 10 29 31 51 47 54 39 99 40 128 3z"/>
</g>
</svg>
