<?xml version="1.0" standalone="no"?>
<!DOCTYPE svg PUBLIC "-//W3C//DTD SVG 20010904//EN"
 "http://www.w3.org/TR/2001/REC-SVG-20010904/DTD/svg10.dtd">
<svg version="1.0" xmlns="http://www.w3.org/2000/svg"
 width="900.000000pt" height="900.000000pt" viewBox="0 0 900.000000 900.000000"
 preserveAspectRatio="xMidYMid meet">

<g transform="translate(0.000000,900.000000) scale(0.100000,-0.100000)"
fill="#000000" stroke="none">
<path d="M4201 8869 c-942 -60 -1823 -418 -2540 -1033 -756 -648 -1282 -1541
-1461 -2481 -71 -374 -98 -889 -66 -1235 79 -829 377 -1600 875 -2268 585
-785 1444 -1357 2398 -1596 657 -164 1336 -178 2004 -41 964 199 1835 725
2466 1490 552 669 901 1507 988 2374 17 178 20 603 5 786 -73 868 -405 1690
-968 2397 -138 174 -488 524 -662 662 -401 318 -872 574 -1345 730 -533 177
-1122 252 -1694 215z m499 -619 c495 -37 944 -157 1395 -374 898 -432 1594
-1173 1920 -2041 114 -303 165 -542 220 -1025 20 -168 19 -532 -1 -713 -48
-439 -176 -859 -388 -1272 -461 -900 -1263 -1596 -2179 -1894 -314 -102 -529
-139 -967 -167 -370 -24 -626 -7 -968 62 -831 169 -1647 686 -2200 1393 -433
552 -688 1183 -752 1861 -18 193 -24 619 -11 770 106 1161 771 2225 1786 2858
193 120 422 227 727 338 474 173 937 240 1418 204z"/>
<path d="M6205 6995 c-49 -39 -200 -159 -335 -267 -344 -273 -597 -481 -1370
-1123 -371 -308 -762 -632 -867 -719 -106 -87 -193 -160 -193 -162 0 -2 297
-4 659 -4 l659 0 73 113 c40 61 307 465 592 897 686 1035 880 1331 875 1334
-1 2 -43 -29 -93 -69z"/>
<path d="M4109 4078 c-73 -112 -352 -534 -619 -938 -621 -939 -790 -1196 -790
-1204 0 -21 731 571 1710 1384 355 295 758 627 895 739 138 113 254 208 260
213 5 4 -291 8 -657 8 l-666 0 -133 -202z"/>
</g>
</svg>
